<svg width="30" height="30" viewBox="0 0 30 30" fill="none" xmlns="http://www.w3.org/2000/svg">
<path fill-rule="evenodd" clip-rule="evenodd" d="M6.70566 0.00258904L6.74559 0.00516662C7.53143 0.0702994 8.21395 0.460824 8.837 1.06957C10.021 2.22597 12.5635 5.6005 12.7555 6.51886C12.9679 7.54337 12.7407 8.20878 12.0636 9.38586L11.8995 9.67595C11.5888 10.2435 11.5413 10.4778 11.6375 10.7461C13.1159 14.3645 15.6388 16.887 19.2158 18.348C19.5546 18.4707 19.8104 18.4003 20.5262 17.9897L20.8998 17.7783C21.9063 17.2263 22.5442 17.0519 23.4848 17.2478C24.3999 17.4395 27.7764 19.9836 28.931 21.1661C29.5389 21.7886 29.9303 22.4723 29.9985 23.3099C30.0703 25.3457 27.5862 28.2122 26.0708 29.0741C24.3475 30.3069 22.1605 30.2864 19.7084 29.1452C13.2961 26.4769 3.4875 16.7309 0.873574 10.3265L0.7171 9.96824C-0.275443 7.59598 -0.253936 5.54649 0.883473 4.00137C1.92132 2.28265 4.71952 -0.0892671 6.70566 0.00258904ZM6.5835 2.19596L6.45126 2.20274C5.43187 2.33817 3.38761 4.09811 2.70683 5.21751L2.58922 5.39253C2.00274 6.34807 2.07071 7.66031 2.88723 9.45705L3.04328 9.82233C5.67656 15.7323 14.794 24.7233 20.5916 27.1367L20.9109 27.2787C22.5883 27.9897 23.8581 27.9582 24.8861 27.2292L24.9621 27.1803C25.2802 26.9593 26.0138 26.2928 26.5788 25.6408C27.3724 24.725 27.822 23.8859 27.8074 23.4393C27.7916 23.2482 27.6442 22.9906 27.3601 22.6998C26.5018 21.8208 23.3801 19.4686 23.0351 19.3963C22.7089 19.3284 22.4411 19.4197 21.7089 19.8409L21.3405 20.0479C20.2617 20.6296 19.5012 20.786 18.4267 20.396C14.2627 18.6964 11.3066 15.7407 9.58899 11.5347C9.18216 10.4102 9.40116 9.61451 10.1086 8.38145L10.2772 8.08489C10.5986 7.50458 10.6666 7.25837 10.6061 6.96631C10.5335 6.61941 8.18292 3.49952 7.30269 2.63983C7.01121 2.35504 6.7551 2.2085 6.56342 2.19261L6.5835 2.19596Z" fill="#FF7E3E"/>
</svg>
