<svg width="26" height="30" viewBox="0 0 26 30" fill="none" xmlns="http://www.w3.org/2000/svg">
<path fill-rule="evenodd" clip-rule="evenodd" d="M13.0432 7.49393e-05C6.12965 -0.0234123 0.482644 5.47703 0.256942 12.362L0.25 12.7894C0.364913 16.1641 1.51311 19.381 3.53542 22.0314L4.01038 22.6512C5.9407 25.1057 8.23467 27.26 10.8104 29.0357L11.4306 29.4531L11.5211 29.5242C12.4039 30.1585 13.5959 30.1585 14.4787 29.5242L14.554 29.4623C16.5978 28.1368 18.4825 26.5794 20.1707 24.8209C23.6029 21.1878 25.6716 17.1169 25.7496 12.9825L25.7499 12.829C25.7733 5.89788 20.2898 0.233505 13.4259 0.00703563L13.0432 7.49393e-05ZM13.0359 2.27623C18.7037 2.2956 23.3054 6.82415 23.4763 12.4637L23.4811 12.9609C23.4155 16.4272 21.6006 19.9987 18.5303 23.2487C16.9648 24.8794 15.2095 26.3289 13.3057 27.5617L13.1789 27.6571C13.0763 27.7461 12.9243 27.7461 12.8217 27.6571L12.6984 27.564C9.86236 25.7124 7.37325 23.3746 5.34494 20.6576C3.71117 18.5163 2.74303 15.9561 2.54816 13.2854L2.51953 12.7498C2.53878 7.06835 7.05338 2.4525 12.6756 2.2811L13.0359 2.27623ZM12.9999 8.10194C10.3173 8.10194 8.14263 10.2833 8.14263 12.9742C8.14263 15.6651 10.3173 17.8464 12.9999 17.8464C15.6825 17.8464 17.8571 15.6651 17.8571 12.9742C17.8571 10.2833 15.6825 8.10194 12.9999 8.10194ZM13.0003 10.3781C14.4297 10.3781 15.5884 11.5404 15.5884 12.9742C15.5884 14.408 14.4297 15.5703 13.0003 15.5703C11.5709 15.5703 10.4122 14.408 10.4122 12.9742C10.4122 11.5404 11.5709 10.3781 13.0003 10.3781Z" fill="#FF7E3E"/>
</svg>
