<svg width="30" height="28" viewBox="0 0 30 28" fill="none" xmlns="http://www.w3.org/2000/svg">
<path fill-rule="evenodd" clip-rule="evenodd" d="M21.7879 0.500071L8.18428 0.5C3.42997 0.5 0 4.34227 0 9.28846V18.7115C0 23.6577 3.42997 27.5 8.18428 27.5H21.7753C24.0589 27.4744 26.2203 26.5131 27.7689 24.8398C29.3174 23.1666 30.1179 20.9274 29.9839 18.6439L29.9859 9.28846C30.1179 7.07256 29.3174 4.83343 27.7689 3.16017C26.2203 1.4869 24.0589 0.525576 21.7879 0.500071ZM8.18351 2.79264L21.7618 2.79257C23.4102 2.81109 24.9791 3.50888 26.1031 4.72344C27.2272 5.938 27.8082 7.56331 27.711 9.22083L27.709 18.7115C27.8082 20.4367 27.2272 22.062 26.1031 23.2766C24.9791 24.4911 23.4102 25.1889 21.7618 25.2074L8.18351 25.2074C4.74342 25.2074 2.27539 22.4427 2.27539 18.7115V9.28846C2.27539 5.55733 4.74342 2.79264 8.18351 2.79264ZM24.037 8.95756C23.6442 8.4633 22.928 8.38333 22.4373 8.77895L16.2884 13.7364L16.1121 13.8602C15.3871 14.3143 14.4351 14.2724 13.7406 13.7272L7.54677 8.77598L7.40737 8.68041C6.92696 8.40092 6.30304 8.51047 5.94784 8.96129C5.55711 9.4572 5.63948 10.1782 6.13182 10.5718L12.3335 15.5292L12.5755 15.7063C14.1356 16.7688 16.2029 16.7101 17.6992 15.5354L23.8597 10.5688L23.9832 10.4533C24.3609 10.0439 24.394 9.40689 24.037 8.95756Z" fill="#FF7E3E"/>
</svg>
