<svg width="62" height="62" viewBox="0 0 62 62" fill="none" xmlns="http://www.w3.org/2000/svg">
<path fill-rule="evenodd" clip-rule="evenodd" d="M51.0083 43.5052H42.3422C41.5062 43.5051 40.7253 43.9227 40.2613 44.6182L39.2459 46.1413C38.7819 46.8368 38.0011 47.2544 37.165 47.2543H24.8349C23.9989 47.2544 23.218 46.8368 22.754 46.1413L21.7386 44.6182C21.2736 43.9226 20.492 43.5051 19.6553 43.5052H10.9916C9.61056 43.5057 8.4911 44.6252 8.4906 46.0063V48.5073C8.4906 49.8336 9.01674 51.1057 9.95429 52.0438C10.8919 52.9819 12.1637 53.5091 13.4899 53.5094H48.5073C49.8335 53.5098 51.1056 52.9833 52.0437 52.0457C52.9818 51.1082 53.5093 49.8364 53.5093 48.5101V46.0063C53.5089 44.6252 52.3894 43.5057 51.0083 43.5052V43.5052Z" stroke="#FF7E3E" stroke-width="2.5" stroke-linecap="round" stroke-linejoin="round"/>
<path d="M51.0083 43.5053V33.5011" stroke="#FF7E3E" stroke-width="2.5" stroke-linecap="round" stroke-linejoin="round"/>
<path d="M10.9916 43.5053V18.4949C10.9913 17.1686 11.5178 15.8965 12.4553 14.9584C13.3929 14.0204 14.6647 13.4932 15.991 13.4928H25.9979" stroke="#FF7E3E" stroke-width="2.5" stroke-linecap="round" stroke-linejoin="round"/>
<path fill-rule="evenodd" clip-rule="evenodd" d="M43.5052 10.8272C41.0302 9.40371 38.2464 8.60297 35.3933 8.49393C34.9013 8.46111 34.4179 8.63449 34.059 8.97249C33.7 9.31048 33.4979 9.78261 33.501 10.2756V22.4965C33.5134 23.4443 34.2601 24.2193 35.2068 24.2669C38.1348 24.3038 40.9998 25.1225 43.5052 26.6384C46.0106 25.1225 48.8756 24.3038 51.8037 24.2669C52.7503 24.2193 53.497 23.4443 53.5094 22.4965V10.2756C53.5126 9.78261 53.3104 9.31048 52.9515 8.97249C52.5925 8.63449 52.1091 8.46111 51.6171 8.49393C48.7641 8.60297 45.9802 9.40371 43.5052 10.8272Z" stroke="#FF7E3E" stroke-width="2.5" stroke-linecap="round" stroke-linejoin="round"/>
<path d="M43.5052 10.826V26.6384" stroke="#FF7E3E" stroke-width="2.5" stroke-linecap="round" stroke-linejoin="round"/>
</svg>
