<svg width="60" height="60" viewBox="0 0 60 60" fill="none" xmlns="http://www.w3.org/2000/svg">
<path fill-rule="evenodd" clip-rule="evenodd" d="M24.2575 10.2375L8.82248 18.8125C5.57748 20.615 5.57748 25.28 8.82248 27.0825L24.2575 35.6575C27.8275 37.64 32.17 37.64 35.7425 35.6575L51.1775 27.0825C54.4225 25.28 54.4225 20.615 51.1775 18.8125L35.7425 10.2375C32.17 8.25499 27.83 8.25499 24.2575 10.2375Z" stroke="#FF7E3E" stroke-width="2.5" stroke-linecap="round" stroke-linejoin="round"/>
<path d="M14.9775 30.5V40.31C14.9775 42.6825 16.165 44.895 18.1375 46.2075L22.155 48.88C26.9075 52.04 33.0925 52.04 37.8425 48.88L41.86 46.2075C43.835 44.895 45.02 42.68 45.02 40.31V30.5" stroke="#FF7E3E" stroke-width="2.5" stroke-linecap="round" stroke-linejoin="round"/>
</svg>
