<svg width="60" height="60" viewBox="0 0 60 60" fill="none" xmlns="http://www.w3.org/2000/svg">
<path d="M30 42.6991V52.5" stroke="#FF7E3E" stroke-width="2.5" stroke-linecap="round" stroke-linejoin="round"/>
<path d="M7.5 52.5V48.8212C7.5 45.2461 10.0234 42.168 13.5291 41.4669L20.6441 40.0439C21.2322 39.9263 21.8429 40.0471 22.3419 40.3798V40.3798C26.9793 43.4714 33.0208 43.4714 37.6583 40.3798V40.3798C38.1573 40.0471 38.768 39.9263 39.3561 40.0439L46.471 41.4669C49.9767 42.1681 52.5 45.2462 52.5 48.8212V52.5" stroke="#FF7E3E" stroke-width="2.5" stroke-linecap="round" stroke-linejoin="round"/>
<path d="M40 18.4958V25C40 30.5228 35.5228 35 30 35V35C24.4772 35 20 30.5228 20 25V18.4958" stroke="#FF7E3E" stroke-width="2.5" stroke-linecap="round" stroke-linejoin="round"/>
<path d="M35.2531 33.5135L37.0633 40.7548" stroke="#FF7E3E" stroke-width="2.5" stroke-linecap="round" stroke-linejoin="round"/>
<path d="M24.7531 33.5135L22.943 40.7544" stroke="#FF7E3E" stroke-width="2.5" stroke-linecap="round" stroke-linejoin="round"/>
<path fill-rule="evenodd" clip-rule="evenodd" d="M15.2421 16.1404L26.3785 21.6535C28.6609 22.7821 31.3391 22.7821 33.6215 21.6535L44.7578 16.1404C45.671 15.694 46.25 14.7664 46.25 13.75C46.25 12.7336 45.671 11.806 44.7578 11.3595L33.6215 5.84647C31.3391 4.71784 28.6609 4.71784 26.3785 5.84647L15.2421 11.3595C14.329 11.806 13.75 12.7336 13.75 13.75C13.75 14.7664 14.329 15.694 15.2421 16.1404Z" stroke="#FF7E3E" stroke-width="2.5" stroke-linecap="round" stroke-linejoin="round"/>
<path d="M46.25 13.8363V20.3363" stroke="#FF7E3E" stroke-width="2.5" stroke-linecap="round" stroke-linejoin="round"/>
</svg>
