<svg width="106" height="18" viewBox="0 0 106 18" fill="none" xmlns="http://www.w3.org/2000/svg">
<path d="M8.55163 0.908492C8.73504 0.536869 9.26496 0.53687 9.44837 0.908493L11.5287 5.1237C11.6015 5.27127 11.7423 5.37356 11.9052 5.39722L16.5569 6.07316C16.967 6.13276 17.1308 6.63674 16.834 6.92601L13.468 10.2071C13.3501 10.322 13.2964 10.4875 13.3242 10.6497L14.1188 15.2826C14.1889 15.6911 13.7601 16.0026 13.3933 15.8097L9.23267 13.6223C9.08701 13.5457 8.91299 13.5457 8.76733 13.6223L4.60667 15.8097C4.23985 16.0026 3.81114 15.6911 3.88119 15.2826L4.67581 10.6497C4.70363 10.4875 4.64985 10.322 4.53201 10.2071L1.16597 6.92601C0.869207 6.63674 1.03296 6.13276 1.44307 6.07316L6.09483 5.39722C6.25769 5.37356 6.39847 5.27127 6.4713 5.1237L8.55163 0.908492Z" fill="#FFBF1C"/>
<path d="M30.5516 0.908492C30.735 0.536869 31.265 0.53687 31.4484 0.908493L33.5287 5.1237C33.6015 5.27127 33.7423 5.37356 33.9052 5.39722L38.5569 6.07316C38.967 6.13276 39.1308 6.63674 38.834 6.92601L35.468 10.2071C35.3501 10.322 35.2964 10.4875 35.3242 10.6497L36.1188 15.2826C36.1889 15.6911 35.7601 16.0026 35.3933 15.8097L31.2327 13.6223C31.087 13.5457 30.913 13.5457 30.7673 13.6223L26.6067 15.8097C26.2399 16.0026 25.8111 15.6911 25.8812 15.2826L26.6758 10.6497C26.7036 10.4875 26.6499 10.322 26.532 10.2071L23.166 6.92601C22.8692 6.63674 23.033 6.13276 23.4431 6.07316L28.0948 5.39722C28.2577 5.37356 28.3985 5.27127 28.4713 5.1237L30.5516 0.908492Z" fill="#FFBF1C"/>
<path d="M52.5516 0.908492C52.735 0.536869 53.265 0.53687 53.4484 0.908493L55.5287 5.1237C55.6015 5.27127 55.7423 5.37356 55.9052 5.39722L60.5569 6.07316C60.967 6.13276 61.1308 6.63674 60.834 6.92601L57.468 10.2071C57.3501 10.322 57.2964 10.4875 57.3242 10.6497L58.1188 15.2826C58.1889 15.6911 57.7601 16.0026 57.3933 15.8097L53.2327 13.6223C53.087 13.5457 52.913 13.5457 52.7673 13.6223L48.6067 15.8097C48.2399 16.0026 47.8111 15.6911 47.8812 15.2826L48.6758 10.6497C48.7036 10.4875 48.6499 10.322 48.532 10.2071L45.166 6.92601C44.8692 6.63674 45.033 6.13276 45.4431 6.07316L50.0948 5.39722C50.2577 5.37356 50.3985 5.27127 50.4713 5.1237L52.5516 0.908492Z" fill="#FFBF1C"/>
<path d="M74.5516 0.908492C74.735 0.536869 75.265 0.53687 75.4484 0.908493L77.5287 5.1237C77.6015 5.27127 77.7423 5.37356 77.9052 5.39722L82.5569 6.07316C82.967 6.13276 83.1308 6.63674 82.834 6.92601L79.468 10.2071C79.3501 10.322 79.2964 10.4875 79.3242 10.6497L80.1188 15.2826C80.1889 15.6911 79.7601 16.0026 79.3933 15.8097L75.2327 13.6223C75.087 13.5457 74.913 13.5457 74.7673 13.6223L70.6067 15.8097C70.2399 16.0026 69.8111 15.6911 69.8812 15.2826L70.6758 10.6497C70.7036 10.4875 70.6499 10.322 70.532 10.2071L67.166 6.92601C66.8692 6.63674 67.033 6.13276 67.4431 6.07316L72.0948 5.39722C72.2577 5.37356 72.3985 5.27127 72.4713 5.1237L74.5516 0.908492Z" fill="#FFBF1C"/>
<path d="M96.5516 0.908492C96.735 0.536869 97.265 0.53687 97.4484 0.908493L99.5287 5.1237C99.6015 5.27127 99.7423 5.37356 99.9052 5.39722L104.557 6.07316C104.967 6.13276 105.131 6.63674 104.834 6.92601L101.468 10.2071C101.35 10.322 101.296 10.4875 101.324 10.6497L102.119 15.2826C102.189 15.6911 101.76 16.0026 101.393 15.8097L97.2327 13.6223C97.087 13.5457 96.913 13.5457 96.7673 13.6223L92.6067 15.8097C92.2399 16.0026 91.8111 15.6911 91.8812 15.2826L92.6758 10.6497C92.7036 10.4875 92.6499 10.322 92.532 10.2071L89.166 6.92601C88.8692 6.63674 89.033 6.13276 89.4431 6.07316L94.0948 5.39722C94.2577 5.37356 94.3985 5.27127 94.4713 5.1237L96.5516 0.908492Z" fill="#FFBF1C"/>
</svg>
