<svg width="233" height="62" viewBox="0 0 233 62" fill="none" xmlns="http://www.w3.org/2000/svg">
<path d="M12.992 49C11.968 49 11.456 48.552 11.456 47.656V47.4C11.456 46.8453 11.9253 45.992 12.864 44.84C13.8027 43.6453 14.272 42.472 14.272 41.32V8.936H12.352C11.328 8.936 10.368 9.36266 9.472 10.216C8.61867 11.0267 7.936 11.9227 7.424 12.904C6.95467 13.8853 6.37867 14.8027 5.696 15.656C5.01333 16.4667 4.30933 16.872 3.584 16.872H2.368C1.77067 16.872 1.30133 16.7013 0.96 16.36C0.618667 15.976 0.490667 15.4853 0.576 14.888L1.856 5.672C2.02667 4.264 2.816 3.56 4.224 3.56H37.376C38.784 3.56 39.5733 4.264 39.744 5.672L41.024 14.888C41.1093 15.4853 40.9813 15.976 40.64 16.36C40.2987 16.7013 39.8293 16.872 39.232 16.872H38.016C37.2907 16.872 36.5867 16.4667 35.904 15.656C35.2213 14.8027 34.624 13.8853 34.112 12.904C33.6427 11.9227 32.96 11.0267 32.064 10.216C31.2107 9.36266 30.272 8.936 29.248 8.936H27.328V41.32C27.328 42.472 27.7973 43.6453 28.736 44.84C29.7173 45.992 30.208 46.8453 30.208 47.4V47.656C30.208 48.552 29.6747 49 28.608 49H12.992ZM62.8505 38.632C63.3198 38.12 63.8532 37.9707 64.4505 38.184C65.0478 38.3973 65.3465 38.8667 65.3465 39.592C65.3465 41.8107 64.2158 44.0507 61.9545 46.312C59.6932 48.5307 56.4078 49.64 52.0985 49.64C47.3198 49.64 43.3945 48.1467 40.3225 45.16C37.2932 42.1733 35.7785 38.2693 35.7785 33.448C35.7785 28.7973 37.3358 25.0213 40.4505 22.12C43.6078 19.176 47.3838 17.6827 51.7785 17.64C55.7465 17.5973 58.9252 18.472 61.3145 20.264C63.7038 22.0133 64.8985 24.296 64.8985 27.112C64.8985 29.3307 63.9385 31.3147 62.0185 33.064C60.1412 34.7707 57.6878 35.8373 54.6585 36.264C52.9518 36.52 51.2665 36.648 49.6025 36.648C51.3092 39.336 53.6558 40.68 56.6425 40.68C59.4158 40.68 61.4852 39.9973 62.8505 38.632ZM50.3705 21.352C49.4318 21.352 48.6638 21.9067 48.0665 23.016C47.5118 24.1253 47.2345 25.5973 47.2345 27.432C47.2345 29.5227 47.4905 31.4213 48.0025 33.128C48.5572 33.128 48.9198 33.1067 49.0905 33.064C51.9065 32.6373 53.3145 30.2907 53.3145 26.024C53.3145 24.7013 53.0158 23.592 52.4185 22.696C51.8638 21.8 51.1812 21.352 50.3705 21.352ZM104.067 21.544C104.067 21.8853 103.811 22.3333 103.299 22.888C102.829 23.4 102.339 24.0827 101.826 24.936C101.357 25.7467 101.123 26.7067 101.123 27.816V41.32C101.123 42.472 101.549 43.6453 102.403 44.84C103.299 45.992 103.747 46.8453 103.747 47.4V47.656C103.747 48.552 103.213 49 102.147 49H92.0345C90.8825 49 90.2638 48.4453 90.1785 47.336C88.3012 48.872 85.8905 49.64 82.9465 49.64C78.8078 49.64 75.2452 48.2533 72.2585 45.48C69.2718 42.664 67.7785 38.7173 67.7785 33.64C67.7785 28.9893 69.2718 25.1707 72.2585 22.184C75.2878 19.1547 78.8505 17.64 82.9465 17.64C85.9332 17.64 88.3438 18.3867 90.1785 19.88C90.3918 18.4293 91.5012 17.8533 93.5065 18.152L102.339 19.304C103.491 19.432 104.067 20.0933 104.067 21.288V21.544ZM85.8265 46.248C86.7225 46.2907 87.4478 45.928 88.0025 45.16C88.5572 44.392 88.8345 43.3467 88.8345 42.024V28.84C88.8345 26.408 88.3438 24.5093 87.3625 23.144C86.4238 21.736 85.3145 21.032 84.0345 21.032C81.6878 21.032 80.4078 23.2507 80.1945 27.688C80.1092 29.3093 80.2158 31.5067 80.5145 34.28C80.8558 37.0107 81.4958 39.6773 82.4345 42.28C83.3732 44.84 84.5038 46.1627 85.8265 46.248ZM123.419 49.64C118.427 49.64 114.395 48.04 111.323 44.84C108.251 41.64 106.715 37.9067 106.715 33.64C106.715 28.776 108.293 24.9147 111.451 22.056C114.608 19.1547 118.448 17.6827 122.971 17.64C126.939 17.5973 130.245 18.472 132.891 20.264C135.579 22.056 136.923 24.488 136.923 27.56C136.923 28.7547 136.496 29.7573 135.643 30.568C134.789 31.336 133.467 31.6773 131.675 31.592C130.352 31.5067 129.2 31.08 128.219 30.312C127.237 29.544 126.469 28.6693 125.915 27.688C125.403 26.664 124.933 25.64 124.507 24.616C124.08 23.592 123.589 22.7387 123.035 22.056C122.48 21.3733 121.84 21.0533 121.115 21.096C120.133 21.1387 119.323 21.736 118.683 22.888C118.085 24.04 117.787 25.4693 117.787 27.176C117.787 31.272 118.683 34.5573 120.475 37.032C122.309 39.5067 124.741 40.744 127.771 40.744C130.373 40.744 132.592 39.6987 134.427 37.608C134.896 37.096 135.429 36.9253 136.027 37.096C136.667 37.2667 136.987 37.7147 136.987 38.44C136.987 41.5547 135.813 44.2 133.467 46.376C131.12 48.552 127.771 49.64 123.419 49.64ZM174.733 41.32C174.818 42.4293 175.224 43.5813 175.949 44.776C176.674 45.928 177.037 46.8027 177.037 47.4V47.656C177.037 48.552 176.504 49 175.437 49H161.293C160.226 49 159.693 48.552 159.693 47.656V47.4C159.693 46.8453 160.098 45.992 160.909 44.84C161.72 43.6453 162.082 42.472 161.997 41.32L161.357 29.672C161.186 26.9413 160.845 25.0427 160.333 23.976C159.864 22.8667 159.032 22.312 157.837 22.312C155.746 22.312 154.701 24.1467 154.701 27.816V41.32C154.701 42.472 155.192 43.6453 156.173 44.84C157.154 45.992 157.645 46.8453 157.645 47.4V47.656C157.645 48.552 157.112 49 156.045 49H140.621C139.554 49 139.021 48.552 139.021 47.656V47.4C139.021 46.8453 139.512 45.992 140.493 44.84C141.474 43.6453 141.965 42.472 141.965 41.32V13.352C141.965 12.456 141.688 11.7093 141.133 11.112C140.621 10.472 140.088 9.91733 139.533 9.448C138.978 8.936 138.701 8.424 138.701 7.912V7.656C138.701 6.84533 139.234 6.184 140.301 5.672L151.693 0.679996C152.504 0.338665 153.144 0.295999 153.613 0.551998C154.082 0.765331 154.317 1.27733 154.317 2.088V20.136C156.194 18.472 158.648 17.64 161.677 17.64C164.792 17.64 167.501 18.6213 169.805 20.584C172.152 22.504 173.496 25.6827 173.837 30.12L174.733 41.32ZM180.249 49C179.182 49 178.649 48.552 178.649 47.656V47.4C178.649 46.8453 179.076 45.992 179.929 44.84C180.825 43.6453 181.273 42.472 181.273 41.32V13.864C181.273 12.712 180.825 11.5813 179.929 10.472C179.076 9.32 178.649 8.50933 178.649 8.04V7.784C178.649 7.22933 179.182 6.696 180.249 6.184L191.193 0.807999C192.132 0.381332 192.878 0.338665 193.433 0.679996C194.03 1.02133 194.329 1.55466 194.329 2.28V41.32C194.329 42.472 194.82 43.6453 195.801 44.84C196.782 45.992 197.273 46.8453 197.273 47.4V47.656C197.273 48.552 196.74 49 195.673 49H180.249ZM229.676 17.96C231.766 17.704 232.812 18.1947 232.812 19.432V44.648C232.812 50.1093 231.041 54.312 227.5 57.256C224.001 60.2427 219.692 61.736 214.572 61.736C210.732 61.736 207.382 60.9467 204.524 59.368C201.665 57.832 200.236 55.6347 200.236 52.776C200.236 51.4533 200.684 50.3227 201.58 49.384C202.518 48.488 203.756 48.04 205.292 48.04C206.657 48.04 207.788 48.3813 208.684 49.064C209.58 49.7893 210.241 50.6427 210.668 51.624C211.137 52.648 211.564 53.672 211.948 54.696C212.332 55.72 212.844 56.5733 213.484 57.256C214.124 57.9813 214.913 58.3653 215.852 58.408C218.668 58.4933 220.097 54.7173 220.14 47.08C218.305 48.36 215.894 49 212.908 49C209.878 49 207.212 47.9547 204.908 45.864C202.604 43.7307 201.452 40.9573 201.452 37.544V27.048C201.452 25.896 201.004 24.7653 200.108 23.656C199.254 22.504 198.828 21.6933 198.828 21.224V20.968C198.828 20.584 198.977 20.2427 199.276 19.944C199.574 19.6027 199.958 19.4107 200.428 19.368L211.052 17.96C213.313 17.704 214.444 18.1947 214.444 19.432L214.188 38.888C214.145 42.5147 215.041 44.328 216.876 44.328C217.772 44.328 218.54 43.8587 219.18 42.92C219.82 41.9387 220.14 40.7867 220.14 39.464V27.048C220.14 25.896 219.692 24.7653 218.796 23.656C217.9 22.504 217.452 21.6933 217.452 21.224V20.968C217.452 20.584 217.601 20.2427 217.9 19.944C218.198 19.6027 218.582 19.4107 219.052 19.368L229.676 17.96Z" fill="white"/>
</svg>
