<svg width="161" height="43" viewBox="0 0 161 43" fill="none" xmlns="http://www.w3.org/2000/svg">
<path d="M8.932 34C8.228 34 7.876 33.692 7.876 33.076V32.9C7.876 32.5187 8.19867 31.932 8.844 31.14C9.48933 30.3187 9.812 29.512 9.812 28.72V6.456H8.492C7.788 6.456 7.128 6.74933 6.512 7.336C5.92533 7.89333 5.456 8.50933 5.104 9.184C4.78133 9.85867 4.38533 10.4893 3.916 11.076C3.44667 11.6333 2.96267 11.912 2.464 11.912H1.628C1.21733 11.912 0.894667 11.7947 0.66 11.56C0.425333 11.296 0.337333 10.9587 0.396 10.548L1.276 4.212C1.39333 3.244 1.936 2.76 2.904 2.76H25.696C26.664 2.76 27.2067 3.244 27.324 4.212L28.204 10.548C28.2627 10.9587 28.1747 11.296 27.94 11.56C27.7053 11.7947 27.3827 11.912 26.972 11.912H26.136C25.6373 11.912 25.1533 11.6333 24.684 11.076C24.2147 10.4893 23.804 9.85867 23.452 9.184C23.1293 8.50933 22.66 7.89333 22.044 7.336C21.4573 6.74933 20.812 6.456 20.108 6.456H18.788V28.72C18.788 29.512 19.1107 30.3187 19.756 31.14C20.4307 31.932 20.768 32.5187 20.768 32.9V33.076C20.768 33.692 20.4013 34 19.668 34H8.932ZM43.2097 26.872C43.5324 26.52 43.8991 26.4173 44.3097 26.564C44.7204 26.7107 44.9257 27.0333 44.9257 27.532C44.9257 29.0573 44.1484 30.5973 42.5937 32.152C41.0391 33.6773 38.7804 34.44 35.8177 34.44C32.5324 34.44 29.8337 33.4133 27.7217 31.36C25.6391 29.3067 24.5977 26.6227 24.5977 23.308C24.5977 20.1107 25.6684 17.5147 27.8097 15.52C29.9804 13.496 32.5764 12.4693 35.5977 12.44C38.3257 12.4107 40.5111 13.012 42.1537 14.244C43.7964 15.4467 44.6177 17.016 44.6177 18.952C44.6177 20.4773 43.9577 21.8413 42.6377 23.044C41.3471 24.2173 39.6604 24.9507 37.5777 25.244C36.4044 25.42 35.2457 25.508 34.1017 25.508C35.2751 27.356 36.8884 28.28 38.9417 28.28C40.8484 28.28 42.2711 27.8107 43.2097 26.872ZM34.6297 14.992C33.9844 14.992 33.4564 15.3733 33.0457 16.136C32.6644 16.8987 32.4737 17.9107 32.4737 19.172C32.4737 20.6093 32.6497 21.9147 33.0017 23.088C33.3831 23.088 33.6324 23.0733 33.7497 23.044C35.6857 22.7507 36.6537 21.1373 36.6537 18.204C36.6537 17.2947 36.4484 16.532 36.0377 15.916C35.6564 15.3 35.1871 14.992 34.6297 14.992ZM71.5457 15.124C71.5457 15.3587 71.3697 15.6667 71.0177 16.048C70.6951 16.4 70.3577 16.8693 70.0057 17.456C69.6831 18.0133 69.5217 18.6733 69.5217 19.436V28.72C69.5217 29.512 69.8151 30.3187 70.4017 31.14C71.0177 31.932 71.3257 32.5187 71.3257 32.9V33.076C71.3257 33.692 70.9591 34 70.2257 34H63.2737C62.4817 34 62.0564 33.6187 61.9977 32.856C60.7071 33.912 59.0497 34.44 57.0257 34.44C54.1804 34.44 51.7311 33.4867 49.6777 31.58C47.6244 29.644 46.5977 26.9307 46.5977 23.44C46.5977 20.2427 47.6244 17.6173 49.6777 15.564C51.7604 13.4813 54.2097 12.44 57.0257 12.44C59.0791 12.44 60.7364 12.9533 61.9977 13.98C62.1444 12.9827 62.9071 12.5867 64.2857 12.792L70.3577 13.584C71.1497 13.672 71.5457 14.1267 71.5457 14.948V15.124ZM59.0057 32.108C59.6217 32.1373 60.1204 31.888 60.5017 31.36C60.8831 30.832 61.0737 30.1133 61.0737 29.204V20.14C61.0737 18.468 60.7364 17.1627 60.0617 16.224C59.4164 15.256 58.6537 14.772 57.7737 14.772C56.1604 14.772 55.2804 16.2973 55.1337 19.348C55.0751 20.4627 55.1484 21.9733 55.3537 23.88C55.5884 25.7573 56.0284 27.5907 56.6737 29.38C57.3191 31.14 58.0964 32.0493 59.0057 32.108ZM84.8502 34.44C81.4182 34.44 78.6462 33.34 76.5342 31.14C74.4222 28.94 73.3662 26.3733 73.3662 23.44C73.3662 20.096 74.4516 17.4413 76.6222 15.476C78.7929 13.4813 81.4329 12.4693 84.5422 12.44C87.2702 12.4107 89.5436 13.012 91.3622 14.244C93.2102 15.476 94.1342 17.148 94.1342 19.26C94.1342 20.0813 93.8409 20.7707 93.2542 21.328C92.6676 21.856 91.7582 22.0907 90.5262 22.032C89.6169 21.9733 88.8249 21.68 88.1502 21.152C87.4756 20.624 86.9476 20.0227 86.5662 19.348C86.2142 18.644 85.8916 17.94 85.5982 17.236C85.3049 16.532 84.9676 15.9453 84.5862 15.476C84.2049 15.0067 83.7649 14.7867 83.2662 14.816C82.5916 14.8453 82.0342 15.256 81.5942 16.048C81.1836 16.84 80.9782 17.8227 80.9782 18.996C80.9782 21.812 81.5942 24.0707 82.8262 25.772C84.0876 27.4733 85.7596 28.324 87.8422 28.324C89.6316 28.324 91.1569 27.6053 92.4182 26.168C92.7409 25.816 93.1076 25.6987 93.5182 25.816C93.9582 25.9333 94.1782 26.2413 94.1782 26.74C94.1782 28.8813 93.3716 30.7 91.7582 32.196C90.1449 33.692 87.8422 34.44 84.8502 34.44ZM120.129 28.72C120.188 29.4827 120.466 30.2747 120.965 31.096C121.464 31.888 121.713 32.4893 121.713 32.9V33.076C121.713 33.692 121.346 34 120.613 34H110.889C110.156 34 109.789 33.692 109.789 33.076V32.9C109.789 32.5187 110.068 31.932 110.625 31.14C111.182 30.3187 111.432 29.512 111.373 28.72L110.933 20.712C110.816 18.8347 110.581 17.5293 110.229 16.796C109.906 16.0333 109.334 15.652 108.513 15.652C107.076 15.652 106.357 16.9133 106.357 19.436V28.72C106.357 29.512 106.694 30.3187 107.369 31.14C108.044 31.932 108.381 32.5187 108.381 32.9V33.076C108.381 33.692 108.014 34 107.281 34H96.6769C95.9436 34 95.5769 33.692 95.5769 33.076V32.9C95.5769 32.5187 95.9143 31.932 96.5889 31.14C97.2636 30.3187 97.6009 29.512 97.6009 28.72V9.492C97.6009 8.876 97.4103 8.36267 97.0289 7.952C96.6769 7.512 96.3103 7.13066 95.9289 6.808C95.5476 6.456 95.3569 6.104 95.3569 5.752V5.576C95.3569 5.01867 95.7236 4.564 96.4569 4.212L104.289 0.779998C104.846 0.545332 105.286 0.515999 105.609 0.691999C105.932 0.838665 106.093 1.19067 106.093 1.748V14.156C107.384 13.012 109.07 12.44 111.153 12.44C113.294 12.44 115.157 13.1147 116.741 14.464C118.354 15.784 119.278 17.9693 119.513 21.02L120.129 28.72ZM123.921 34C123.188 34 122.821 33.692 122.821 33.076V32.9C122.821 32.5187 123.115 31.932 123.701 31.14C124.317 30.3187 124.625 29.512 124.625 28.72V9.844C124.625 9.052 124.317 8.27466 123.701 7.512C123.115 6.72 122.821 6.16267 122.821 5.84V5.664C122.821 5.28267 123.188 4.916 123.921 4.564L131.445 0.867999C132.091 0.574666 132.604 0.545332 132.985 0.779998C133.396 1.01466 133.601 1.38133 133.601 1.88V28.72C133.601 29.512 133.939 30.3187 134.613 31.14C135.288 31.932 135.625 32.5187 135.625 32.9V33.076C135.625 33.692 135.259 34 134.525 34H123.921ZM157.902 12.66C159.339 12.484 160.058 12.8213 160.058 13.672V31.008C160.058 34.7627 158.841 37.652 156.406 39.676C154.001 41.7293 151.038 42.756 147.518 42.756C144.878 42.756 142.575 42.2133 140.61 41.128C138.645 40.072 137.662 38.5613 137.662 36.596C137.662 35.6867 137.97 34.9093 138.586 34.264C139.231 33.648 140.082 33.34 141.138 33.34C142.077 33.34 142.854 33.5747 143.47 34.044C144.086 34.5427 144.541 35.1293 144.834 35.804C145.157 36.508 145.45 37.212 145.714 37.916C145.978 38.62 146.33 39.2067 146.77 39.676C147.21 40.1747 147.753 40.4387 148.398 40.468C150.334 40.5267 151.317 37.9307 151.346 32.68C150.085 33.56 148.427 34 146.374 34C144.291 34 142.458 33.2813 140.874 31.844C139.29 30.3773 138.498 28.4707 138.498 26.124V18.908C138.498 18.116 138.19 17.3387 137.574 16.576C136.987 15.784 136.694 15.2267 136.694 14.904V14.728C136.694 14.464 136.797 14.2293 137.002 14.024C137.207 13.7893 137.471 13.6573 137.794 13.628L145.098 12.66C146.653 12.484 147.43 12.8213 147.43 13.672L147.254 27.048C147.225 29.5413 147.841 30.788 149.102 30.788C149.718 30.788 150.246 30.4653 150.686 29.82C151.126 29.1453 151.346 28.3533 151.346 27.444V18.908C151.346 18.116 151.038 17.3387 150.422 16.576C149.806 15.784 149.498 15.2267 149.498 14.904V14.728C149.498 14.464 149.601 14.2293 149.806 14.024C150.011 13.7893 150.275 13.6573 150.598 13.628L157.902 12.66Z" fill="#121019"/>
</svg>
